<?xml version="1.0" encoding="iso-8859-1"?>
<!-- Generator: Adobe Illustrator 19.0.0, SVG Export Plug-In . SVG Version: 6.00 Build 0)  -->
<svg version="1.1" id="Capa_1" xmlns="http://www.w3.org/2000/svg" xmlns:xlink="http://www.w3.org/1999/xlink" x="0px" y="0px"
	 viewBox="0 0 512 512" style="enable-background:new 0 0 512 512;" xml:space="preserve">
<g>
	<g>
		<path d="M400.481,141.833L400.481,141.833V57.567l-47.6-54.401H159.119l-47.6,54.401v84.266H0v367h512v-367H400.481z
			 M332.925,33.166h6.342l31.214,35.673v126.327h-37.556V33.166z M209.074,33.166h93.852v42.129h-93.852V33.166z M209.074,105.295
			h93.852v36.537h-93.852V105.295z M141.518,68.839l31.214-35.673h6.342v162h-37.556V68.839z M482,478.833H30v-307h81.519v53.333
			h97.556v-53.333h93.852v53.333h97.556v-53.333H482V478.833z"/>
	</g>
</g>
<g>
	<g>
		<path d="M317.68,382.839l15.667-94H200.304l-7.637-24.759l-28.668,8.842l29.974,97.179v62.733h123.334v-30h-93.334v-19.995H317.68
			z M220.044,352.839l-10.487-34h88.376l-5.667,34H220.044z"/>
	</g>
</g>
<g>
</g>
<g>
</g>
<g>
</g>
<g>
</g>
<g>
</g>
<g>
</g>
<g>
</g>
<g>
</g>
<g>
</g>
<g>
</g>
<g>
</g>
<g>
</g>
<g>
</g>
<g>
</g>
<g>
</g>
</svg>
